<mxfile host="Electron" modified="2024-06-25T16:29:20.735Z" agent="Mozilla/5.0 (Windows NT 10.0; Win64; x64) AppleWebKit/537.36 (KHTML, like Gecko) draw.io/24.2.5 Chrome/120.0.6099.109 Electron/28.1.0 Safari/537.36" etag="E-Sz6vbpAhxkvnCkSOii" version="24.2.5" type="device">
  <diagram name="Page-1" id="c9db0220-8083-56f3-ca83-edcdcd058819">
    <mxGraphModel dx="1723" dy="818" grid="1" gridSize="10" guides="1" tooltips="1" connect="1" arrows="1" fold="1" page="1" pageScale="1.5" pageWidth="826" pageHeight="1169" background="none" math="0" shadow="0">
      <root>
        <mxCell id="0" style=";html=1;" />
        <mxCell id="1" style=";html=1;" parent="0" />
        <mxCell id="98pc_0TysFxwIg0c6hxw-2" style="edgeStyle=orthogonalEdgeStyle;rounded=0;orthogonalLoop=1;jettySize=auto;html=1;exitX=0.5;exitY=1;exitDx=0;exitDy=0;" edge="1" parent="1">
          <mxGeometry relative="1" as="geometry">
            <mxPoint x="490" y="870" as="sourcePoint" />
            <mxPoint x="490" y="870" as="targetPoint" />
          </mxGeometry>
        </mxCell>
        <mxCell id="98pc_0TysFxwIg0c6hxw-3" value="" style="rounded=0;whiteSpace=wrap;html=1;" vertex="1" parent="1">
          <mxGeometry x="160" width="880" height="990" as="geometry" />
        </mxCell>
        <mxCell id="98pc_0TysFxwIg0c6hxw-4" value="" style="rounded=1;whiteSpace=wrap;html=1;" vertex="1" parent="1">
          <mxGeometry x="180" y="40" width="840" height="70" as="geometry" />
        </mxCell>
        <mxCell id="98pc_0TysFxwIg0c6hxw-5" value="&lt;font style=&quot;font-size: 18px;&quot;&gt;&lt;b&gt;FlyWise AirWays&lt;/b&gt;&lt;/font&gt;" style="text;html=1;align=center;verticalAlign=middle;whiteSpace=wrap;rounded=0;" vertex="1" parent="1">
          <mxGeometry x="180" y="60" width="210" height="30" as="geometry" />
        </mxCell>
        <mxCell id="98pc_0TysFxwIg0c6hxw-6" value="Home" style="html=1;shadow=0;dashed=0;shape=mxgraph.bootstrap.rrect;rSize=5;strokeColor=none;strokeWidth=1;fillColor=#6C767D;fontColor=#FFFFFF;whiteSpace=wrap;align=left;verticalAlign=middle;spacingLeft=10;fontStyle=1;fontSize=18;" vertex="1" parent="1">
          <mxGeometry x="490" y="57.5" width="70" height="35" as="geometry" />
        </mxCell>
        <mxCell id="98pc_0TysFxwIg0c6hxw-7" value="Abo&lt;span style=&quot;color: rgba(0, 0, 0, 0); font-family: monospace; font-size: 0px; font-weight: 400; text-wrap: nowrap;&quot;&gt;%3CmxGraphModel%3E%3Croot%3E%3CmxCell%20id%3D%220%22%2F%3E%3CmxCell%20id%3D%221%22%20parent%3D%220%22%2F%3E%3CmxCell%20id%3D%222%22%20value%3D%22Home%22%20style%3D%22html%3D1%3Bshadow%3D0%3Bdashed%3D0%3Bshape%3Dmxgraph.bootstrap.rrect%3BrSize%3D5%3BstrokeColor%3Dnone%3BstrokeWidth%3D1%3BfillColor%3D%236C767D%3BfontColor%3D%23FFFFFF%3BwhiteSpace%3Dwrap%3Balign%3Dleft%3BverticalAlign%3Dmiddle%3BspacingLeft%3D10%3BfontStyle%3D1%3BfontSize%3D18%3B%22%20vertex%3D%221%22%20parent%3D%221%22%3E%3CmxGeometry%20x%3D%22430%22%20y%3D%2275%22%20width%3D%2270%22%20height%3D%2235%22%20as%3D%22geometry%22%2F%3E%3C%2FmxCell%3E%3C%2Froot%3E%3C%2FmxGraphModel%3E&lt;/span&gt;&lt;span style=&quot;color: rgba(0, 0, 0, 0); font-family: monospace; font-size: 0px; font-weight: 400; text-wrap: nowrap;&quot;&gt;%3CmxGraphModel%3E%3Croot%3E%3CmxCell%20id%3D%220%22%2F%3E%3CmxCell%20id%3D%221%22%20parent%3D%220%22%2F%3E%3CmxCell%20id%3D%222%22%20value%3D%22Home%22%20style%3D%22html%3D1%3Bshadow%3D0%3Bdashed%3D0%3Bshape%3Dmxgraph.bootstrap.rrect%3BrSize%3D5%3BstrokeColor%3Dnone%3BstrokeWidth%3D1%3BfillColor%3D%236C767D%3BfontColor%3D%23FFFFFF%3BwhiteSpace%3Dwrap%3Balign%3Dleft%3BverticalAlign%3Dmiddle%3BspacingLeft%3D10%3BfontStyle%3D1%3BfontSize%3D18%3B%22%20vertex%3D%221%22%20parent%3D%221%22%3E%3CmxGeometry%20x%3D%22430%22%20y%3D%2275%22%20width%3D%2270%22%20height%3D%2235%22%20as%3D%22geometry%22%2F%3E%3C%2FmxCell%3E%3C%2Froot%3E%3C%2FmxGraphModel%3E&lt;/span&gt;ut&amp;nbsp;&amp;nbsp;" style="html=1;shadow=0;dashed=0;shape=mxgraph.bootstrap.rrect;rSize=5;strokeColor=none;strokeWidth=1;fillColor=#6C767D;fontColor=#FFFFFF;whiteSpace=wrap;align=left;verticalAlign=middle;spacingLeft=10;fontStyle=1;fontSize=18;" vertex="1" parent="1">
          <mxGeometry x="580" y="57.5" width="70" height="35" as="geometry" />
        </mxCell>
        <mxCell id="98pc_0TysFxwIg0c6hxw-8" value="Contact Us" style="html=1;shadow=0;dashed=0;shape=mxgraph.bootstrap.rrect;rSize=5;strokeColor=none;strokeWidth=1;fillColor=#6C767D;fontColor=#FFFFFF;whiteSpace=wrap;align=left;verticalAlign=middle;spacingLeft=10;fontStyle=1;fontSize=18;" vertex="1" parent="1">
          <mxGeometry x="670" y="52.5" width="90" height="45" as="geometry" />
        </mxCell>
        <mxCell id="98pc_0TysFxwIg0c6hxw-9" value="Register" style="rounded=1;whiteSpace=wrap;html=1;arcSize=50;strokeColor=none;strokeWidth=1;fillColor=#0085FC;fontColor=#FFFFFF;whiteSpace=wrap;align=left;verticalAlign=middle;spacingLeft=0;fontStyle=1;fontSize=14;spacing=10;" vertex="1" parent="1">
          <mxGeometry x="800" y="57.5" width="80" height="35" as="geometry" />
        </mxCell>
        <mxCell id="98pc_0TysFxwIg0c6hxw-10" value="&amp;nbsp; SignIn" style="rounded=1;whiteSpace=wrap;html=1;arcSize=50;strokeColor=none;strokeWidth=1;fillColor=#0085FC;fontColor=#FFFFFF;whiteSpace=wrap;align=left;verticalAlign=middle;spacingLeft=0;fontStyle=1;fontSize=14;spacing=10;" vertex="1" parent="1">
          <mxGeometry x="910" y="57.5" width="70" height="32.5" as="geometry" />
        </mxCell>
        <mxCell id="98pc_0TysFxwIg0c6hxw-11" value="" style="rounded=1;whiteSpace=wrap;html=1;fillColor=#000000;arcSize=16;" vertex="1" parent="1">
          <mxGeometry x="180" y="120" width="185" height="510" as="geometry" />
        </mxCell>
        <mxCell id="98pc_0TysFxwIg0c6hxw-12" value="&lt;b&gt;&lt;font style=&quot;font-size: 18px;&quot;&gt;Home&lt;/font&gt;&lt;/b&gt;" style="text;html=1;align=center;verticalAlign=middle;whiteSpace=wrap;rounded=0;fillColor=#FFFFFF;" vertex="1" parent="1">
          <mxGeometry x="227.5" y="150" width="90" height="30" as="geometry" />
        </mxCell>
        <mxCell id="98pc_0TysFxwIg0c6hxw-13" value="&lt;font style=&quot;font-size: 18px;&quot;&gt;&lt;b&gt;Dashboard&lt;/b&gt;&lt;/font&gt;" style="text;html=1;align=center;verticalAlign=middle;whiteSpace=wrap;rounded=0;fillColor=#FFFFFF;" vertex="1" parent="1">
          <mxGeometry x="207.5" y="210" width="130" height="40" as="geometry" />
        </mxCell>
        <mxCell id="98pc_0TysFxwIg0c6hxw-15" value="&lt;b&gt;&lt;font style=&quot;font-size: 18px;&quot;&gt;Book Flight&lt;/font&gt;&lt;/b&gt;" style="text;html=1;align=center;verticalAlign=middle;whiteSpace=wrap;rounded=0;fillColor=#FFFFFF;" vertex="1" parent="1">
          <mxGeometry x="207.5" y="280" width="128.5" height="40" as="geometry" />
        </mxCell>
        <mxCell id="98pc_0TysFxwIg0c6hxw-16" value="&lt;span style=&quot;font-size: 18px;&quot;&gt;&lt;b&gt;Past Booking&lt;/b&gt;&lt;/span&gt;" style="text;html=1;align=center;verticalAlign=middle;whiteSpace=wrap;rounded=0;fillColor=#FFFFFF;" vertex="1" parent="1">
          <mxGeometry x="209" y="350" width="128.5" height="40" as="geometry" />
        </mxCell>
        <mxCell id="98pc_0TysFxwIg0c6hxw-17" value="&lt;span style=&quot;font-size: 18px;&quot;&gt;&lt;b&gt;Post Feedback&lt;/b&gt;&lt;/span&gt;" style="text;html=1;align=center;verticalAlign=middle;whiteSpace=wrap;rounded=0;fillColor=#FFFFFF;" vertex="1" parent="1">
          <mxGeometry x="207.5" y="420" width="128.5" height="40" as="geometry" />
        </mxCell>
        <mxCell id="98pc_0TysFxwIg0c6hxw-18" value="&lt;span style=&quot;font-size: 18px;&quot;&gt;&lt;b&gt;Feedbacks&lt;/b&gt;&lt;/span&gt;" style="text;html=1;align=center;verticalAlign=middle;whiteSpace=wrap;rounded=0;fillColor=#FFFFFF;" vertex="1" parent="1">
          <mxGeometry x="207.5" y="490" width="130" height="40" as="geometry" />
        </mxCell>
        <mxCell id="98pc_0TysFxwIg0c6hxw-19" value="&lt;span style=&quot;font-size: 18px;&quot;&gt;&lt;b&gt;Analytics&lt;/b&gt;&lt;/span&gt;" style="text;html=1;align=center;verticalAlign=middle;whiteSpace=wrap;rounded=0;fillColor=#FFFFFF;" vertex="1" parent="1">
          <mxGeometry x="207.5" y="560" width="130" height="40" as="geometry" />
        </mxCell>
        <mxCell id="98pc_0TysFxwIg0c6hxw-20" value="" style="rounded=1;whiteSpace=wrap;html=1;fillColor=#FFFFFF;" vertex="1" parent="1">
          <mxGeometry x="190" y="776.5" width="820" height="200" as="geometry" />
        </mxCell>
        <mxCell id="98pc_0TysFxwIg0c6hxw-22" value="&lt;font style=&quot;font-size: 24px;&quot;&gt;&lt;b style=&quot;&quot;&gt;Project&lt;/b&gt;&lt;/font&gt;&lt;div&gt;&lt;font size=&quot;3&quot; style=&quot;&quot;&gt;&lt;b&gt;&lt;br&gt;&lt;/b&gt;&lt;/font&gt;&lt;/div&gt;&lt;div&gt;&lt;font style=&quot;font-size: 18px;&quot;&gt;&lt;b&gt;&lt;br&gt;&lt;/b&gt;&lt;/font&gt;&lt;/div&gt;" style="text;html=1;align=center;verticalAlign=middle;whiteSpace=wrap;rounded=0;" vertex="1" parent="1">
          <mxGeometry x="177.5" y="800" width="190" height="120" as="geometry" />
        </mxCell>
        <mxCell id="98pc_0TysFxwIg0c6hxw-23" value="&lt;font style=&quot;font-size: 18px;&quot;&gt;&lt;b&gt;Changelog&lt;/b&gt;&lt;/font&gt;" style="text;html=1;align=center;verticalAlign=middle;whiteSpace=wrap;rounded=0;" vertex="1" parent="1">
          <mxGeometry x="216.75" y="851.5" width="110" height="50" as="geometry" />
        </mxCell>
        <mxCell id="98pc_0TysFxwIg0c6hxw-24" value="&lt;font style=&quot;font-size: 18px;&quot;&gt;&lt;b&gt;Status&lt;/b&gt;&lt;/font&gt;" style="text;html=1;align=center;verticalAlign=middle;whiteSpace=wrap;rounded=0;" vertex="1" parent="1">
          <mxGeometry x="226.5" y="890" width="81" height="40" as="geometry" />
        </mxCell>
        <mxCell id="98pc_0TysFxwIg0c6hxw-25" value="&lt;b&gt;&lt;font style=&quot;font-size: 18px;&quot;&gt;License&lt;/font&gt;&lt;/b&gt;" style="text;html=1;align=center;verticalAlign=middle;whiteSpace=wrap;rounded=0;" vertex="1" parent="1">
          <mxGeometry x="226.5" y="920" width="80" height="40" as="geometry" />
        </mxCell>
        <mxCell id="98pc_0TysFxwIg0c6hxw-26" value="&lt;font style=&quot;font-size: 24px;&quot;&gt;&lt;b style=&quot;&quot;&gt;Community&lt;/b&gt;&lt;/font&gt;" style="text;html=1;align=center;verticalAlign=middle;whiteSpace=wrap;rounded=0;" vertex="1" parent="1">
          <mxGeometry x="410" y="821.5" width="60" height="30" as="geometry" />
        </mxCell>
        <mxCell id="98pc_0TysFxwIg0c6hxw-27" value="&lt;font style=&quot;font-size: 18px;&quot;&gt;&lt;b&gt;Github&lt;/b&gt;&lt;/font&gt;" style="text;html=1;align=center;verticalAlign=middle;whiteSpace=wrap;rounded=0;" vertex="1" parent="1">
          <mxGeometry x="410" y="860" width="60" height="30" as="geometry" />
        </mxCell>
        <mxCell id="98pc_0TysFxwIg0c6hxw-28" value="&lt;font style=&quot;font-size: 18px;&quot;&gt;&lt;b&gt;Issues&lt;/b&gt;&lt;/font&gt;" style="text;html=1;align=center;verticalAlign=middle;whiteSpace=wrap;rounded=0;" vertex="1" parent="1">
          <mxGeometry x="400" y="880" width="80" height="40" as="geometry" />
        </mxCell>
        <mxCell id="98pc_0TysFxwIg0c6hxw-29" value="&lt;span style=&quot;font-size: 18px;&quot;&gt;&lt;b&gt;Twitter&lt;/b&gt;&lt;/span&gt;" style="text;html=1;align=center;verticalAlign=middle;whiteSpace=wrap;rounded=0;" vertex="1" parent="1">
          <mxGeometry x="400" y="910" width="80" height="40" as="geometry" />
        </mxCell>
        <mxCell id="98pc_0TysFxwIg0c6hxw-30" value="&lt;b style=&quot;&quot;&gt;&lt;font style=&quot;font-size: 24px;&quot;&gt;Help&lt;/font&gt;&lt;/b&gt;" style="text;html=1;align=center;verticalAlign=middle;whiteSpace=wrap;rounded=0;" vertex="1" parent="1">
          <mxGeometry x="588.75" y="816.5" width="80" height="40" as="geometry" />
        </mxCell>
        <mxCell id="98pc_0TysFxwIg0c6hxw-31" value="&lt;b style=&quot;&quot;&gt;&lt;font style=&quot;font-size: 18px;&quot;&gt;Support&lt;/font&gt;&lt;/b&gt;" style="text;html=1;align=center;verticalAlign=middle;whiteSpace=wrap;rounded=0;" vertex="1" parent="1">
          <mxGeometry x="587.5" y="851.5" width="82.5" height="40" as="geometry" />
        </mxCell>
        <mxCell id="98pc_0TysFxwIg0c6hxw-32" value="&lt;span style=&quot;font-size: 18px;&quot;&gt;&lt;b&gt;Troubleshooting&lt;/b&gt;&lt;/span&gt;" style="text;html=1;align=center;verticalAlign=middle;whiteSpace=wrap;rounded=0;" vertex="1" parent="1">
          <mxGeometry x="588.75" y="876.5" width="82.5" height="40" as="geometry" />
        </mxCell>
        <mxCell id="98pc_0TysFxwIg0c6hxw-33" value="&lt;span style=&quot;font-size: 18px;&quot;&gt;&lt;b&gt;Contact Us&lt;/b&gt;&lt;/span&gt;" style="text;html=1;align=center;verticalAlign=middle;whiteSpace=wrap;rounded=0;" vertex="1" parent="1">
          <mxGeometry x="560" y="901.5" width="140" height="40" as="geometry" />
        </mxCell>
        <mxCell id="98pc_0TysFxwIg0c6hxw-34" value="&lt;span style=&quot;font-size: 24px;&quot;&gt;&lt;b&gt;Others&lt;/b&gt;&lt;/span&gt;" style="text;html=1;align=center;verticalAlign=middle;whiteSpace=wrap;rounded=0;" vertex="1" parent="1">
          <mxGeometry x="790" y="811.5" width="80" height="40" as="geometry" />
        </mxCell>
        <mxCell id="98pc_0TysFxwIg0c6hxw-35" value="&lt;span style=&quot;font-size: 18px;&quot;&gt;&lt;b&gt;Terms &amp;amp; Conditions&lt;/b&gt;&lt;/span&gt;" style="text;html=1;align=center;verticalAlign=middle;whiteSpace=wrap;rounded=0;" vertex="1" parent="1">
          <mxGeometry x="720" y="850" width="220" height="40" as="geometry" />
        </mxCell>
        <mxCell id="98pc_0TysFxwIg0c6hxw-36" value="&lt;span style=&quot;font-size: 18px;&quot;&gt;&lt;b&gt;Privacy Policy&lt;/b&gt;&lt;/span&gt;" style="text;html=1;align=center;verticalAlign=middle;whiteSpace=wrap;rounded=0;" vertex="1" parent="1">
          <mxGeometry x="755" y="880" width="146.25" height="40" as="geometry" />
        </mxCell>
        <mxCell id="98pc_0TysFxwIg0c6hxw-37" value="" style="dashed=0;outlineConnect=0;html=1;align=center;labelPosition=center;verticalLabelPosition=bottom;verticalAlign=top;shape=mxgraph.webicons.facebook;fillColor=#6294E4;gradientColor=#1A2665" vertex="1" parent="1">
          <mxGeometry x="901.25" y="793.5" width="20" height="18" as="geometry" />
        </mxCell>
        <mxCell id="98pc_0TysFxwIg0c6hxw-38" value="" style="dashed=0;outlineConnect=0;html=1;align=center;labelPosition=center;verticalLabelPosition=bottom;verticalAlign=top;shape=mxgraph.webicons.instagram;gradientColor=#DFDEDE" vertex="1" parent="1">
          <mxGeometry x="932.5" y="789.5" width="27.5" height="27" as="geometry" />
        </mxCell>
        <mxCell id="98pc_0TysFxwIg0c6hxw-39" value="" style="dashed=0;outlineConnect=0;html=1;align=center;labelPosition=center;verticalLabelPosition=bottom;verticalAlign=top;shape=mxgraph.webicons.twitter;fillColor=#49EAF7;gradientColor=#137BD0" vertex="1" parent="1">
          <mxGeometry x="970" y="796.5" width="20" height="20" as="geometry" />
        </mxCell>
        <mxCell id="98pc_0TysFxwIg0c6hxw-40" value="&lt;font style=&quot;font-size: 24px;&quot;&gt;&lt;b&gt;Singn Up Here&amp;nbsp;&lt;/b&gt;&lt;/font&gt;" style="text;html=1;align=center;verticalAlign=middle;whiteSpace=wrap;rounded=0;" vertex="1" parent="1">
          <mxGeometry x="600" y="150" width="180" height="50" as="geometry" />
        </mxCell>
        <mxCell id="98pc_0TysFxwIg0c6hxw-41" value="&lt;span style=&quot;font-size: 18px;&quot;&gt;Email&lt;/span&gt;" style="text;html=1;align=center;verticalAlign=middle;whiteSpace=wrap;rounded=0;" vertex="1" parent="1">
          <mxGeometry x="650" y="230" width="60" height="30" as="geometry" />
        </mxCell>
        <mxCell id="98pc_0TysFxwIg0c6hxw-42" value="" style="rounded=1;whiteSpace=wrap;html=1;" vertex="1" parent="1">
          <mxGeometry x="570" y="270" width="240" height="30" as="geometry" />
        </mxCell>
        <mxCell id="98pc_0TysFxwIg0c6hxw-43" value="Email Address" style="text;html=1;align=center;verticalAlign=middle;whiteSpace=wrap;rounded=0;" vertex="1" parent="1">
          <mxGeometry x="625" y="270" width="130" height="30" as="geometry" />
        </mxCell>
        <mxCell id="98pc_0TysFxwIg0c6hxw-44" value="&lt;span style=&quot;font-size: 18px;&quot;&gt;P&lt;/span&gt;&lt;span style=&quot;color: rgba(0, 0, 0, 0); font-family: monospace; font-size: 0px; text-align: start; text-wrap: nowrap;&quot;&gt;%3CmxGraphModel%3E%3Croot%3E%3CmxCell%20id%3D%220%22%2F%3E%3CmxCell%20id%3D%221%22%20parent%3D%220%22%2F%3E%3CmxCell%20id%3D%222%22%20value%3D%22Email%20Address%22%20style%3D%22text%3Bhtml%3D1%3Balign%3Dcenter%3BverticalAlign%3Dmiddle%3BwhiteSpace%3Dwrap%3Brounded%3D0%3B%22%20vertex%3D%221%22%20parent%3D%221%22%3E%3CmxGeometry%20x%3D%22625%22%20y%3D%22270%22%20width%3D%22130%22%20height%3D%2230%22%20as%3D%22geometry%22%2F%3E%3C%2FmxCell%3E%3C%2Froot%3E%3C%2FmxGraphModel%3E&lt;/span&gt;&lt;span style=&quot;font-size: 18px;&quot;&gt;assword&lt;/span&gt;" style="text;html=1;align=center;verticalAlign=middle;whiteSpace=wrap;rounded=0;" vertex="1" parent="1">
          <mxGeometry x="645" y="320" width="60" height="30" as="geometry" />
        </mxCell>
        <mxCell id="98pc_0TysFxwIg0c6hxw-45" value="" style="rounded=1;whiteSpace=wrap;html=1;" vertex="1" parent="1">
          <mxGeometry x="570" y="355" width="240" height="30" as="geometry" />
        </mxCell>
        <mxCell id="98pc_0TysFxwIg0c6hxw-46" value="Password" style="text;html=1;align=center;verticalAlign=middle;whiteSpace=wrap;rounded=0;" vertex="1" parent="1">
          <mxGeometry x="615" y="352.5" width="130" height="35" as="geometry" />
        </mxCell>
        <mxCell id="98pc_0TysFxwIg0c6hxw-47" value="&lt;span style=&quot;font-size: 18px;&quot;&gt;First Name&lt;/span&gt;" style="text;html=1;align=center;verticalAlign=middle;whiteSpace=wrap;rounded=0;" vertex="1" parent="1">
          <mxGeometry x="615" y="400" width="125" height="30" as="geometry" />
        </mxCell>
        <mxCell id="98pc_0TysFxwIg0c6hxw-48" value="" style="rounded=1;whiteSpace=wrap;html=1;" vertex="1" parent="1">
          <mxGeometry x="570" y="440" width="240" height="30" as="geometry" />
        </mxCell>
        <mxCell id="98pc_0TysFxwIg0c6hxw-49" value="First Name" style="text;html=1;align=center;verticalAlign=middle;whiteSpace=wrap;rounded=0;" vertex="1" parent="1">
          <mxGeometry x="612.5" y="437.5" width="130" height="35" as="geometry" />
        </mxCell>
        <mxCell id="98pc_0TysFxwIg0c6hxw-50" value="&lt;span style=&quot;font-size: 18px;&quot;&gt;Last Name&lt;/span&gt;" style="text;html=1;align=center;verticalAlign=middle;whiteSpace=wrap;rounded=0;" vertex="1" parent="1">
          <mxGeometry x="621.87" y="490" width="125" height="30" as="geometry" />
        </mxCell>
        <mxCell id="98pc_0TysFxwIg0c6hxw-51" value="" style="rounded=1;whiteSpace=wrap;html=1;" vertex="1" parent="1">
          <mxGeometry x="570" y="520" width="240" height="30" as="geometry" />
        </mxCell>
        <mxCell id="98pc_0TysFxwIg0c6hxw-52" value="Last Name" style="text;html=1;align=center;verticalAlign=middle;whiteSpace=wrap;rounded=0;" vertex="1" parent="1">
          <mxGeometry x="616.87" y="517.5" width="130" height="35" as="geometry" />
        </mxCell>
        <mxCell id="98pc_0TysFxwIg0c6hxw-53" value="&lt;span style=&quot;font-size: 18px;&quot;&gt;Mobile Number&lt;/span&gt;" style="text;html=1;align=center;verticalAlign=middle;whiteSpace=wrap;rounded=0;" vertex="1" parent="1">
          <mxGeometry x="616.87" y="565" width="125" height="30" as="geometry" />
        </mxCell>
        <mxCell id="98pc_0TysFxwIg0c6hxw-55" value="" style="rounded=1;whiteSpace=wrap;html=1;" vertex="1" parent="1">
          <mxGeometry x="570" y="595" width="240" height="30" as="geometry" />
        </mxCell>
        <mxCell id="98pc_0TysFxwIg0c6hxw-56" value="Mobile Number" style="text;html=1;align=center;verticalAlign=middle;whiteSpace=wrap;rounded=0;" vertex="1" parent="1">
          <mxGeometry x="615" y="595" width="130" height="35" as="geometry" />
        </mxCell>
        <mxCell id="98pc_0TysFxwIg0c6hxw-58" value="Register" style="html=1;shadow=0;dashed=0;shape=mxgraph.bootstrap.rrect;rSize=5;strokeColor=none;strokeWidth=1;fillColor=#0085FC;fontColor=#FFFFFF;whiteSpace=wrap;align=center;verticalAlign=middle;spacingLeft=0;fontStyle=0;fontSize=16;spacing=5;" vertex="1" parent="1">
          <mxGeometry x="625" y="720" width="87.5" height="40" as="geometry" />
        </mxCell>
        <mxCell id="98pc_0TysFxwIg0c6hxw-59" value="&lt;span style=&quot;font-size: 18px;&quot;&gt;Govt.ID&lt;/span&gt;" style="text;html=1;align=center;verticalAlign=middle;whiteSpace=wrap;rounded=0;" vertex="1" parent="1">
          <mxGeometry x="615" y="640" width="125" height="30" as="geometry" />
        </mxCell>
        <mxCell id="98pc_0TysFxwIg0c6hxw-60" value="" style="rounded=1;whiteSpace=wrap;html=1;" vertex="1" parent="1">
          <mxGeometry x="570" y="670" width="240" height="30" as="geometry" />
        </mxCell>
        <mxCell id="98pc_0TysFxwIg0c6hxw-61" value="Govt ID" style="text;html=1;align=center;verticalAlign=middle;whiteSpace=wrap;rounded=0;" vertex="1" parent="1">
          <mxGeometry x="614.37" y="670" width="130" height="35" as="geometry" />
        </mxCell>
      </root>
    </mxGraphModel>
  </diagram>
</mxfile>
